PathFileType	4	(X/Y/Z)	./resultDataOpenSim/trcMotMarkerGrf/sub09/qtm-15-05.trc
DataRate	CameraRate	NumFrames	NumMarkers	Units	OrigDataRate	OrigDataStartFrame	OrigNumFrames
250.000000	250.000000	6	24	m	250.000000	245	488
Frame#	Time	L.Toe.Tip			R.Toe.Tip			L.Ankle.Lat			R.Ankle.Lat			L.Ankle.Med			R.Ankle.Med			L.Heel			R.Heel			L.Knee.Lat			R.Knee.Lat			L.Knee.Med			R.Knee.Med			L.Thigh.Upper			R.Thigh.Upper			L.ASIS			R.ASIS			V.Sacral			L.Acromium			R.Acromium			C7			L.Elbow			R.Elbow			L.Wrist.Lat			R.Wrist.Lat
		X1	Y1	Z1	X2	Y2	Z2	X3	Y3	Z3	X4	Y4	Z4	X5	Y5	Z5	X6	Y6	Z6	X7	Y7	Z7	X8	Y8	Z8	X9	Y9	Z9	X10	Y10	Z10	X11	Y11	Z11	X12	Y12	Z12	X13	Y13	Z13	X14	Y14	Z14	X15	Y15	Z15	X16	Y16	Z16	X17	Y17	Z17	X18	Y18	Z18	X19	Y19	Z19	X20	Y20	Z20	X21	Y21	Z21	X22	Y22	Z22	X23	Y23	Z23	X24	Y24	Z24

245	0.976	0.19635142	-0.05795877	0.00084312573	0.51776483	0.11327638	0.10180134	0.065305753	0.0047478023	-0.071021157	0.37318369	0.13557911	0.11392222	0.076477145	0.026143933	0.025819897	0.40011187	0.16480991	0.020572189	-0.01446496	-0.013065152	-0.03481465	0.30910326	0.11196354	0.057714178	0.19232175	0.40275941	-0.11988809	0.53752256	0.54834578	0.15308525	0.18278897	0.40607711	0.0041437762	0.53466971	0.53629042	0.028445946	0.24565437	0.82381915	-0.16889062	0.26115276	0.84100082	0.2029415	0.34738331	0.89791641	-0.11097077	0.33999241	0.91419152	0.12886484	0.18696462	0.97959871	0.0016455944	0.42203492	1.3458647	-0.15455717	0.35500491	1.3749018	0.16744529	0.32225479	1.4144158	-0.0093591061	0.29514294	0.99434213	-0.24158986	0.15085087	1.0756995	0.24209462	0.51347332	0.8329396	-0.2399006	0.23227677	0.81924717	0.29864759
246	0.98	0.19651187	-0.057924228	0.0007803057	0.53865475	0.11391518	0.10080061	0.065702535	0.0058277809	-0.070791368	0.39335533	0.1318264	0.1128371	0.077316288	0.027141469	0.026021858	0.41937286	0.16204883	0.019661886	-0.013972645	-0.011444653	-0.034336065	0.33013008	0.10637917	0.056490017	0.19345869	0.40360018	-0.12001366	0.54536262	0.5505121	0.1528714	0.18444042	0.40650935	0.0045861114	0.54228048	0.5378523	0.028423902	0.25031323	0.82415324	-0.16865776	0.26760849	0.84168525	0.20325181	0.3529778	0.89762346	-0.11125864	0.34646191	0.91433423	0.12868448	0.19297675	0.97982502	0.00071781158	0.42888773	1.3456553	-0.15475071	0.36309635	1.3746525	0.16746562	0.32973708	1.4144185	-0.0092529469	0.30247678	0.99366331	-0.241758	0.15801562	1.0764729	0.24255758	0.52303108	0.83507566	-0.23926767	0.23705929	0.8193691	0.29907128
247	0.984	0.19668444	-0.057886215	0.00071603759	0.55946671	0.11463647	0.099737789	0.066061462	0.0069234387	-0.070557858	0.41346089	0.12833506	0.11180676	0.078180722	0.028140327	0.026252982	0.43863006	0.15944195	0.018737482	-0.013452998	-0.0098384192	-0.033845756	0.35121186	0.10106089	0.055231165	0.19473339	0.40442093	-0.12015445	0.55301666	0.55245614	0.15272187	0.18659469	0.40703683	0.0047463703	0.54979464	0.53920749	0.028430623	0.25503368	0.82443597	-0.1684111	0.2740555	0.84230332	0.20358177	0.35863321	0.89728483	-0.11151433	0.35293968	0.91441526	0.12853914	0.19890278	0.98000316	-0.0001837052	0.43576673	1.3453976	-0.15492851	0.37116653	1.3743504	0.16747185	0.33729501	1.4143401	-0.0093135896	0.30979733	0.99294785	-0.24191003	0.16514035	1.0771895	0.24310278	0.53251667	0.83717325	-0.23862222	0.24191895	0.8194522	0.29948167
248	0.988	0.19685761	-0.057850773	0.00068609112	0.58020004	0.11542727	0.098626901	0.066337403	0.0080680284	-0.070325484	0.43349493	0.12513081	0.1108258	0.079086692	0.029148148	0.026497196	0.45790251	0.15699305	0.017760374	-0.012917557	-0.0082264871	-0.033336106	0.37232927	0.096025882	0.053920506	0.1961029	0.40523093	-0.12030393	0.56051244	0.55416288	0.15262261	0.18930471	0.40771597	0.004518547	0.55723393	0.54035726	0.028445584	0.25983184	0.82465338	-0.16815483	0.28048505	0.84285009	0.20391585	0.36433447	0.89688809	-0.11174545	0.35943454	0.91443775	0.12841852	0.20492563	0.98016499	-0.00068366188	0.44267	1.3450958	-0.1550991	0.37921078	1.3739993	0.16746244	0.34485386	1.4141756	-0.009398365	0.31711436	0.99220341	-0.24204646	0.17223755	1.0778778	0.24371663	0.54193433	0.83923336	-0.2379652	0.24690141	0.81950319	0.29988215
249	0.992	0.19702032	-0.05782046	0.00070927646	0.60078871	0.11629062	0.097509241	0.066511403	0.0092819461	-0.070056906	0.45348326	0.12219589	0.10983722	0.080038503	0.030163923	0.026749155	0.47720953	0.15471398	0.016692078	-0.012370653	-0.006594613	-0.032805572	0.39346307	0.091281668	0.052529122	0.19750218	0.40604015	-0.12044079	0.56787724	0.55563174	0.15255209	0.19228773	0.40847779	0.0041068091	0.56466545	0.5413032	0.028429644	0.2647178	0.82479966	-0.16789529	0.28690517	0.84332427	0.20425371	0.37007201	0.89643392	-0.11196549	0.36595422	0.91440528	0.12831383	0.21113676	0.98029757	-0.00072299387	0.44958389	1.3447597	-0.1552763	0.38723346	1.3736028	0.16743945	0.35233585	1.4139475	-0.0093528408	0.32442866	0.99143108	-0.24216044	0.17933074	1.0785898	0.24436816	0.55128465	0.84125379	-0.23729848	0.25202951	0.81952491	0.30027527
250	0.996	0.19716664	-0.057793028	0.00077974083	0.62114343	0.11724776	0.096429721	0.066643286	0.010541773	-0.069717011	0.47343714	0.11947351	0.10875344	0.081008849	0.031175201	0.027009713	0.49654568	0.15261621	0.015528233	-0.011815555	-0.0049383593	-0.03226442	0.41458291	0.086831466	0.051051641	0.19891265	0.40684666	-0.12055051	0.57509484	0.55684893	0.15249078	0.19522012	0.40923753	0.0037855454	0.57212678	0.54204758	0.028370657	0.26968722	0.82488268	-0.16762846	0.29334083	0.84373229	0.20460863	0.37585462	0.89593809	-0.11217556	0.37250414	0.91432167	0.12821682	0.21749831	0.98037201	-0.00051393062	0.45650111	1.3443942	-0.15545896	0.39523202	1.3731605	0.16740298	0.35972746	1.4136822	-0.0091460654	0.33173493	0.99062775	-0.24224753	0.18642819	1.0793587	0.24503493	0.56056695	0.84323179	-0.23662504	0.25729	0.81951561	0.30066558
